<svg width="64" height="64" viewBox="0 0 64 64" fill="none" xmlns="http://www.w3.org/2000/svg">
<path fill-rule="evenodd" clip-rule="evenodd" d="M44 14V50C44 51.1046 43.1046 52 42 52H22C20.8954 52 20 51.1046 20 50V14C20 12.8954 20.8954 12 22 12H42C43.1046 12 44 12.8954 44 14Z" fill="white"/>
<path d="M42 11C43.6569 11 45 12.3431 45 14V50C45 51.6569 43.6569 53 42 53H22C20.3431 53 19 51.6569 19 50V14C19 12.3431 20.3431 11 22 11H42ZM22 13C21.4477 13 21 13.4477 21 14V50C21 50.5523 21.4477 51 22 51H42C42.5523 51 43 50.5523 43 50V14C43 13.4477 42.5523 13 42 13H22Z" fill="#154E84"/>
<path d="M30 49H34C34.5523 49 35 48.5523 35 48C35 47.4477 34.5523 47 34 47H30C29.4477 47 29 47.4477 29 48C29 48.5523 29.4477 49 30 49Z" fill="#FFC200"/>
<path fill-rule="evenodd" clip-rule="evenodd" d="M24 15H40C40.5523 15 41 15.4477 41 16V44C41 44.5523 40.5523 45 40 45H24C23.4477 45 23 44.5523 23 44V16C23 15.4477 23.4477 15 24 15Z" fill="#52ABE2"/>
</svg>
