<svg width="64" height="64" viewBox="0 0 64 64" fill="none" xmlns="http://www.w3.org/2000/svg">
<g id="iconspace_Chair">
<path id="Shape" d="M47 35C47 35.5523 46.5523 36 46 36H18C17.4477 36 17 35.5523 17 35V21C17 17.134 20.134 14 24 14H40C43.866 14 47 17.134 47 21V35Z" fill="#154E84"/>
<path id="Shape_2" d="M45 34V21C45 18.2386 42.7614 16 40 16H24C21.2386 16 19 18.2386 19 21V34H45Z" fill="white"/>
<path id="Shape_3" d="M11 29C11 26.2386 13.2386 24 16 24C18.7614 24 21 26.2386 21 29V45C21 45.5523 20.5523 46 20 46H16C14.3431 46 13 44.6569 13 43V33.0005C11.759 32.0696 11 30.6005 11 29Z" fill="#154E84"/>
<path id="Shape_4" d="M19 44V29C19 27.3431 17.6569 26 16 26C14.3431 26 13 27.3431 13 29C13 30.084 13.5789 31.066 14.5007 31.5993C14.8097 31.778 15 32.1079 15 32.4649V43C15 43.5523 15.4477 44 16 44H19Z" fill="white"/>
<path id="Shape_5" d="M53 29C53 26.2386 50.7614 24 48 24C45.2386 24 43 26.2386 43 29V45C43 45.5523 43.4477 46 44 46H48C49.6569 46 51 44.6569 51 43V33.0005C52.241 32.0696 53 30.6005 53 29Z" fill="#154E84"/>
<path id="Shape_6" d="M45 44V29C45 27.3431 46.3431 26 48 26C49.6569 26 51 27.3431 51 29C51 30.084 50.4211 31.066 49.4993 31.5993C49.1903 31.778 49 32.1079 49 32.4649V43C49 43.5523 48.5523 44 48 44H45Z" fill="white"/>
<path id="Shape_7" d="M19 40C19 39.4477 19.4477 39 20 39H44C44.5523 39 45 39.4477 45 40V45C45 45.5523 44.5523 46 44 46H20C19.4477 46 19 45.5523 19 45V40Z" fill="#154E84"/>
<path id="Shape_8" d="M21 41V44H43V41H21Z" fill="#FFC200"/>
<path id="Shape_9" d="M15 45C15 44.4477 15.4477 44 16 44H20C20.5523 44 21 44.4477 21 45V48C21 49.1046 20.1046 50 19 50H17C15.8954 50 15 49.1046 15 48V45Z" fill="#154E84"/>
<path id="Shape_10" d="M17 46V48H19V46H17Z" fill="#52ABE2"/>
<path id="Shape_11" d="M43 45C43 44.4477 43.4477 44 44 44H48C48.5523 44 49 44.4477 49 45V48C49 49.1046 48.1046 50 47 50H45C43.8954 50 43 49.1046 43 48V45Z" fill="#154E84"/>
<path id="Shape_12" d="M45 46V48H47V46H45Z" fill="#52ABE2"/>
<path id="Shape_13" d="M19 35C19 34.4477 19.4477 34 20 34H44C44.5523 34 45 34.4477 45 35V40C45 40.5523 44.5523 41 44 41H20C19.4477 41 19 40.5523 19 40V35Z" fill="#154E84"/>
<path id="Shape_14" d="M21 36V39H43V36H21Z" fill="#52ABE2"/>
</g>
</svg>
