<svg width="64" height="64" viewBox="0 0 64 64" fill="none" xmlns="http://www.w3.org/2000/svg">
<g id="iconspace_Not C">
<path id="Shape" fill-rule="evenodd" clip-rule="evenodd" d="M16 50C19.3137 50 22 47.7614 22 45C22 42.2386 19.3137 40 16 40C12.6863 40 10 42.2386 10 45C10 47.7614 12.6863 50 16 50Z" fill="white"/>
<path id="Shape_2" fill-rule="evenodd" clip-rule="evenodd" d="M40 46C43.3137 46 46 43.7614 46 41C46 38.2386 43.3137 36 40 36C36.6863 36 34 38.2386 34 41C34 43.7614 36.6863 46 40 46Z" fill="white"/>
<path id="Shape_3" fill-rule="evenodd" clip-rule="evenodd" d="M16 50C19.3137 50 22 47.7614 22 45C22 42.2386 19.3137 40 16 40C12.6863 40 10 42.2386 10 45C10 47.7614 12.6863 50 16 50Z" fill="#52ABE2"/>
<path id="Shape_4" fill-rule="evenodd" clip-rule="evenodd" d="M40 46C43.3137 46 46 43.7614 46 41C46 38.2386 43.3137 36 40 36C36.6863 36 34 38.2386 34 41C34 43.7614 36.6863 46 40 46Z" fill="#FFC200"/>
<path id="Path" fill-rule="evenodd" clip-rule="evenodd" d="M17.5 40.1575C14.9122 40.7126 13 42.6702 13 45C13 47.3298 14.9122 49.2874 17.5 49.8425C17.0206 49.9453 16.5179 50 16 50C12.6863 50 10 47.7614 10 45C10 42.2386 12.6863 40 16 40C16.5179 40 17.0206 40.0547 17.5 40.1575Z" fill="white"/>
<path id="Shape_5" fill-rule="evenodd" clip-rule="evenodd" d="M41.5 36.1575C38.9122 36.7126 37 38.6702 37 41C37 43.3298 38.9122 45.2874 41.5 45.8425C41.0206 45.9453 40.5179 46 40 46C36.6863 46 34 43.7614 34 41C34 38.2386 36.6863 36 40 36C40.5179 36 41.0206 36.0547 41.5 36.1575Z" fill="white"/>
<path id="Shape_6" d="M16 39C19.8298 39 23 41.6419 23 45C23 48.3581 19.8298 51 16 51C12.1702 51 9 48.3581 9 45C9 41.6419 12.1702 39 16 39ZM16 41C13.2024 41 11 42.8353 11 45C11 47.1647 13.2024 49 16 49C18.7976 49 21 47.1647 21 45C21 42.8353 18.7976 41 16 41Z" fill="#154E84"/>
<path id="Shape_7" d="M40 35C43.8298 35 47 37.6419 47 41C47 44.3581 43.8298 47 40 47C36.1702 47 33 44.3581 33 41C33 37.6419 36.1702 35 40 35ZM40 37C37.2024 37 35 38.8353 35 41C35 43.1647 37.2024 45 40 45C42.7976 45 45 43.1647 45 41C45 38.8353 42.7976 37 40 37Z" fill="#154E84"/>
<path id="Shape_8" d="M23 18.7652L45 12.3844V40.7148C45 41.2671 45.4477 41.7148 46 41.7148C46.5523 41.7148 47 41.2671 47 40.7148V11.0531C47 10.3871 46.3611 9.90716 45.7214 10.0927L21.7214 17.0536C21.2941 17.1776 21 17.5691 21 18.0141V44.7148C21 45.2671 21.4477 45.7148 22 45.7148C22.5523 45.7148 23 45.2671 23 44.7148V18.7652Z" fill="#154E84"/>
<path id="Shape_9" d="M45.7217 10.0925C46.3613 9.90721 47 10.3875 47 11.0535V16.9998C47 17.4441 46.7068 17.8352 46.2803 17.9597L22.2803 24.9597C21.6403 25.1464 21 24.6664 21 23.9998V18.0144C21 17.5694 21.2943 17.1774 21.7217 17.0535L45.7217 10.0925ZM23 18.7654V22.6667L45 16.2498V12.3845L23 18.7654Z" fill="#154E84"/>
</g>
</svg>
