<svg width="64" height="64" viewBox="0 0 64 64" fill="none" xmlns="http://www.w3.org/2000/svg">
<g id="iconspace_Soccer Ball">
<path id="Shape" d="M32 53C43.598 53 53 43.598 53 32C53 20.402 43.598 11 32 11C20.402 11 11 20.402 11 32C11 43.598 20.402 53 32 53Z" fill="#154E84"/>
<path id="Shape_2" d="M32 51C21.5066 51 13 42.4934 13 32C13 21.5066 21.5066 13 32 13C42.4934 13 51 21.5066 51 32C51 42.4934 42.4934 51 32 51Z" fill="white"/>
<path id="Shape_3" d="M48.706 42C49.5025 42 49.9793 42.8859 49.5407 43.5507C47.0995 47.2507 43.5404 50.103 39.3858 51.6641C38.6816 51.9287 37.9485 51.3504 38.0418 50.604L39.0078 42.876C39.0703 42.3755 39.4957 42 40 42L48.706 42Z" fill="#154E84"/>
<path id="Shape_4" d="M40.8828 44L40.2423 49.1242C42.7538 47.9129 44.9709 46.1592 46.7318 44L40.8828 44Z" fill="#FFC200"/>
<path id="Shape_5" d="M26 50.7408C26 51.4385 25.3035 51.9217 24.6499 51.6775C20.4802 50.1194 16.9076 47.2615 14.4593 43.5507C14.0207 42.8859 14.4975 42 15.294 42L23.0362 42C23.4845 42 23.878 42.2983 23.9991 42.7299L25.9628 49.7299C25.9875 49.8178 26 49.9087 26 50V50.7408Z" fill="#154E84"/>
<path id="Shape_6" d="M22.2782 44L17.2682 44C19.0178 46.1453 21.2177 47.8903 23.7091 49.1007L22.2782 44Z" fill="#52ABE2"/>
<path id="Shape_7" d="M11 32C11 28.2625 11.9786 24.6653 13.81 21.4993C13.9888 21.1903 14.3187 21 14.6756 21H15C15.3344 21 15.6466 21.1671 15.8321 21.4453L19.8321 27.4453C20.1314 27.8944 20.0204 28.5001 19.5812 28.8138L12.6049 33.7964C11.9609 34.2564 11.0631 33.8215 11.0249 33.031C11.0083 32.6884 11 32.3447 11 32Z" fill="#154E84"/>
<path id="Shape_8" d="M17.6308 27.7491L14.9153 23.6759C13.8003 25.9595 13.1526 28.4532 13.0238 31.0395L17.6308 27.7491Z" fill="#FFC200"/>
<path id="Shape_9" d="M53 32C53 32.3447 52.9916 32.6884 52.9751 33.031C52.9368 33.8215 52.039 34.2564 51.395 33.7964L44.4188 28.8138C43.9789 28.4996 43.8683 27.8929 44.169 27.4437L48.169 21.4683C48.3546 21.191 48.6663 21.0245 49 21.0245L49.3385 21.0245C49.696 21.0245 50.0262 21.2154 50.2048 21.525C52.0267 24.685 53 28.2727 53 32Z" fill="#154E84"/>
<path id="Shape_10" d="M49.0902 23.6874L46.3706 27.7501L50.9761 31.0394C50.8476 28.4576 50.2018 25.9679 49.0902 23.6874Z" fill="#52ABE2"/>
<path id="Shape_11" d="M25.3428 13.6694C24.7538 13.156 24.9548 12.1957 25.7003 11.9616C27.7218 11.3266 29.8395 11 31.9999 11C34.1648 11 36.2868 11.328 38.312 11.9655C39.0576 12.2002 39.2578 13.1611 38.6679 13.674L32.656 18.9006C32.2794 19.228 31.719 19.2276 31.3428 18.8997L25.3428 13.6694Z" fill="#154E84"/>
<path id="Shape_12" d="M32.0009 16.8201L35.9277 13.4062C34.6473 13.1372 33.3332 13 32 13C30.6703 13 29.3595 13.1365 28.0823 13.4041L32.0009 16.8201Z" fill="#52ABE2"/>
<path id="Shape_13" d="M31.3997 23.1996C31.7551 22.933 32.2443 22.9331 32.5999 23.1996L40.5999 29.1996C40.9441 29.4578 41.0844 29.9076 40.9485 30.3158L37.9485 39.3158C37.8124 39.724 37.4306 40.0002 37.0002 40.0004H27.0002C26.5698 40.0004 26.1871 39.7241 26.051 39.3158L23.051 30.3158C22.9152 29.9076 23.0555 29.4577 23.3997 29.1996L31.3997 23.1996ZM25.177 30.3676L27.7209 38.0004H36.2795L38.8235 30.3676L32.0002 25.2504L25.177 30.3676Z" fill="#154E84"/>
<path id="Shape_14" d="M24.3714 29.0715L19.3714 27.0715L18.6287 28.9285L23.6287 30.9285L24.3714 29.0715Z" fill="#154E84"/>
<path id="Shape_15" d="M26.2928 38.2928L22.2928 42.2928L23.7071 43.7071L27.7071 39.7071L26.2928 38.2928Z" fill="#154E84"/>
<path id="Path" d="M37.8 38.4L40.8 42.4L39.2 43.6L36.2 39.6L37.8 38.4Z" fill="#154E84"/>
<path id="Path_2" d="M45.3714 28.9285L40.3714 30.9285L39.6287 29.0715L44.6287 27.0715L45.3714 28.9285Z" fill="#154E84"/>
<path id="Shape_16" d="M33.0059 24.1299V17.9907H31.0059V24.1299H33.0059Z" fill="#154E84"/>
</g>
</svg>
