<svg width="64" height="64" viewBox="0 0 64 64" fill="none" xmlns="http://www.w3.org/2000/svg">
<g id="iconspace_Camera ">
<path id="Shape" d="M20.4197 20L23.5559 14.5116C24.09 13.5769 25.0841 13 26.1606 13H37.8394C38.9159 13 39.91 13.5769 40.4441 14.5116L43.5803 20H50C51.6569 20 53 21.3431 53 23V48C53 49.6569 51.6569 51 50 51H14C12.3431 51 11 49.6569 11 48V23C11 21.3431 12.3431 20 14 20H20.4197Z" fill="#154E84"/>
<path id="Shape_2" d="M21 22H14C13.4477 22 13 22.4477 13 23V48C13 48.5523 13.4477 49 14 49H50C50.5523 49 51 48.5523 51 48V23C51 22.4477 50.5523 22 50 22H43C42.6411 22 42.3098 21.8077 42.1318 21.4961L38.7076 15.5039C38.5296 15.1923 38.1982 15 37.8394 15H26.1606C25.8018 15 25.4704 15.1923 25.2924 15.5039L21.8682 21.4961C21.6902 21.8077 21.3589 22 21 22Z" fill="white"/>
<path id="Shape_3" fill-rule="evenodd" clip-rule="evenodd" d="M24 22H40L37.2913 17.4855C37.1106 17.1843 36.7851 17 36.4338 17H27.5662C27.2149 17 26.8894 17.1843 26.7087 17.4855L24 22Z" fill="#52ABE2"/>
<path id="Shape_4" d="M32 46C37.5228 46 42 41.5228 42 36C42 30.4772 37.5228 26 32 26C26.4772 26 22 30.4772 22 36C22 41.5228 26.4772 46 32 46Z" fill="#154E84"/>
<path id="Shape_5" d="M32 44C27.5817 44 24 40.4183 24 36C24 31.5817 27.5817 28 32 28C36.4183 28 40 31.5817 40 36C40 40.4183 36.4183 44 32 44Z" fill="#52ABE2"/>
<path id="Shape_6" fill-rule="evenodd" clip-rule="evenodd" d="M32 42C35.3137 42 38 39.3137 38 36C38 32.6863 35.3137 30 32 30C28.6863 30 26 32.6863 26 36C26 39.3137 28.6863 42 32 42Z" fill="white"/>
<path id="Shape_7" fill-rule="evenodd" clip-rule="evenodd" d="M18 29C19.1046 29 20 28.1046 20 27C20 25.8954 19.1046 25 18 25C16.8954 25 16 25.8954 16 27C16 28.1046 16.8954 29 18 29Z" fill="#FFC200"/>
</g>
</svg>
