<svg width="42" height="42" viewBox="0 0 42 42" fill="none" xmlns="http://www.w3.org/2000/svg">
<path d="M15 0C15.5523 0 16 0.447715 16 1C16 3.76142 18.2386 6 21 6C23.7614 6 26 3.76142 26 1C26 0.447715 26.4477 0 27 0H35C38.866 0 42 3.13401 42 7V15C42 16.6569 40.6569 18 39 18H34V39C34 40.6569 32.6569 42 31 42H11C9.34315 42 8 40.6569 8 39V18H3C1.34315 18 0 16.6569 0 15V7C0 3.13401 3.13401 0 7 0H15ZM7 2C4.23858 2 2 4.23858 2 7V15C2 15.5523 2.44772 16 3 16H9C9.55229 16 10 16.4477 10 17V39C10 39.5523 10.4477 40 11 40H31C31.5523 40 32 39.5523 32 39V17C32 16.4477 32.4477 16 33 16H39C39.5523 16 40 15.5523 40 15V7C40 4.23858 37.7614 2 35 2H27.9287C27.4435 5.39227 24.5265 8 21 8C17.4735 8 14.5565 5.39227 14.0713 2H7Z" fill="#154E84"/>
</svg>
