<svg width="64" height="64" viewBox="0 0 64 64" fill="none" xmlns="http://www.w3.org/2000/svg">
<g id="iconspace_Stethoscope B">
<path id="Shape" d="M45 40V42C45 46.9706 40.9706 51 36 51C31.0294 51 27 46.9706 27 42V36H25V42C25 48.0751 29.9249 53 36 53C42.0751 53 47 48.0751 47 42V40H45Z" fill="#154E84"/>
<path id="Shape_2" d="M46 42C49.3137 42 52 39.3137 52 36C52 32.6863 49.3137 30 46 30C42.6863 30 40 32.6863 40 36C40 39.3137 42.6863 42 46 42Z" fill="#154E84"/>
<path id="Shape_3" d="M46 40C43.7909 40 42 38.2091 42 36C42 33.7909 43.7909 32 46 32C48.2091 32 50 33.7909 50 36C50 38.2091 48.2091 40 46 40Z" fill="white"/>
<path id="Shape_4" fill-rule="evenodd" clip-rule="evenodd" d="M46 38C47.1046 38 48 37.1046 48 36C48 34.8954 47.1046 34 46 34C44.8954 34 44 34.8954 44 36C44 37.1046 44.8954 38 46 38Z" fill="#FFC200"/>
<path id="Shape_5" d="M32.8866 16H31C30.4477 16 30 15.5523 30 15V12C30 11.4477 30.4477 11 31 11H35.444C37.1009 11 38.444 12.3431 38.444 14C38.444 14.2432 38.4145 14.4854 38.356 14.7215L33.4008 34.7215C33.0692 36.06 31.8679 37 30.4889 37H21.5875C20.2121 37 19.0129 36.0647 18.6779 34.7308L13.6548 14.7308C13.2512 13.1238 14.2267 11.494 15.8337 11.0904C16.0726 11.0304 16.3181 11 16.5644 11L21 11C21.5523 11 22 11.4477 22 12V15C22 15.5523 21.5523 16 21 16H19.1135L22.796 32H29.204L32.8866 16Z" fill="#154E84"/>
<path id="Shape_6" d="M20 13H16.5644C16.4823 13 16.4005 13.0101 16.3209 13.0301C15.7852 13.1647 15.46 13.7079 15.5946 14.2436L20.6177 34.2436C20.7293 34.6882 21.1291 35 21.5875 35H30.4889C30.9486 35 31.349 34.6867 31.4596 34.2405L36.4147 14.2405C36.4342 14.1618 36.444 14.0811 36.444 14C36.444 13.4477 35.9963 13 35.444 13H32V14H34.1429C34.7857 14 35.2616 14.5978 35.1174 15.2243L30.9745 33.2243C30.8701 33.6783 30.4659 34 30 34H22C21.5342 34 21.13 33.6783 21.0255 33.2243L16.8826 15.2243C16.7385 14.5978 17.2143 14 17.8572 14H20V13Z" fill="#52ABE2"/>
<path id="Shape_7" d="M23 36C23 35.4477 23.4477 35 24 35H28C28.5523 35 29 35.4477 29 36V39C29 39.5523 28.5523 40 28 40H24C23.4477 40 23 39.5523 23 39V36Z" fill="#154E84"/>
<path id="Shape_8" d="M25 37V38H27V37H25Z" fill="white"/>
</g>
</svg>
