<svg width="64" height="64" viewBox="0 0 64 64" fill="none" xmlns="http://www.w3.org/2000/svg">
<path d="M17 13H47C48.6569 13 50 14.3431 50 16V37C50 37.5523 49.5523 38 49 38H15C14.4477 38 14 37.5523 14 37V16C14 14.3431 15.3431 13 17 13Z" fill="#154E84"/>
<path d="M48 36V16C48 15.4477 47.5523 15 47 15H17C16.4477 15 16 15.4477 16 16V36H48Z" fill="#52ABE2"/>
<path fill-rule="evenodd" clip-rule="evenodd" d="M18 18C18 17.4477 18.4477 17 19 17H45C45.5523 17 46 17.4477 46 18V33C46 33.5523 45.5523 34 45 34H19C18.4477 34 18 33.5523 18 33V18Z" fill="white"/>
<path d="M14.2045 36H49.7955L52.4091 47.3254C52.7816 48.9398 51.7749 50.5506 50.1605 50.9232C49.9392 50.9742 49.7129 51 49.4859 51H14.5141C12.8572 51 11.5141 49.6569 11.5141 48C11.5141 47.773 11.5399 47.5466 11.5909 47.3254L14.2045 36Z" fill="#154E84"/>
<path d="M13.5397 47.7751C13.5227 47.8489 13.5141 47.9243 13.5141 48C13.5141 48.5523 13.9618 49 14.5141 49H49.4859C49.5616 49 49.637 48.9914 49.7108 48.9744C50.2489 48.8502 50.5845 48.3133 50.4603 47.7751L48.2045 38H15.7955L13.5397 47.7751Z" fill="white"/>
<path d="M25.6251 42.7772C25.7291 42.3225 26.1336 42 26.6 42H37.4C37.8664 42 38.2709 42.3225 38.3749 42.7772L39.9749 49.7772C40.118 50.4033 39.6422 51 39 51H25C24.3578 51 23.882 50.4033 24.0251 49.7772L25.6251 42.7772Z" fill="#154E84"/>
<path d="M26.2544 49H37.7456L36.6028 44H27.3972L26.2544 49Z" fill="#FFC200"/>
</svg>
